<svg width="200" height="33" viewBox="0 0 200 33" fill="none" xmlns="http://www.w3.org/2000/svg">
<path d="M3.08863 32.2645C2.68141 32.3618 2.27945 32.3792 1.89171 32.2761C1.14703 32.0782 0.585182 31.613 0.243942 30.8829C-0.0951495 30.1574 -0.0499945 29.4146 0.191558 28.6699C0.548304 27.57 1.12333 26.5931 1.73966 25.64C1.91895 25.3628 2.10643 25.0912 2.29492 24.8207C2.43551 24.619 2.48916 24.6241 2.62794 24.8144C3.16287 25.5481 3.65046 26.3146 4.08046 27.1208C4.4034 27.7262 4.68172 28.3551 4.84597 29.0286C5.15227 30.2845 4.64548 31.4859 3.55578 32.0806C3.41341 32.1583 3.25333 32.2001 3.08863 32.2645Z" fill="#FFA500" style="fill:#FFA500;fill:color(display-p3 1.0000 0.6471 0.0000);fill-opacity:1;"/>
<path fill-rule="evenodd" clip-rule="evenodd" d="M17.2804 32.058C17.5317 32.0804 17.7852 32.1031 18.0415 32.1292C18.292 32.1134 18.5402 32.0991 18.7868 32.0849C19.4697 32.0457 20.1396 32.0071 20.8065 31.9394C22.6601 31.751 24.3932 31.1387 26.0203 30.2655C28.2767 29.0547 30.1759 27.4168 31.6398 25.295C32.7953 23.6204 33.6349 21.813 34.1041 19.8251C34.4635 18.3024 34.5921 16.7735 34.5192 15.213C34.4504 13.7377 34.1706 12.3144 33.712 10.9136C33.2111 9.38374 32.4713 7.97993 31.5393 6.67946C30.4385 5.14337 29.0973 3.84994 27.5314 2.77849C25.8073 1.59878 23.9294 0.783693 21.8972 0.348683C20.5086 0.0514164 19.0979 -0.0539598 17.6665 0.0256026C16.1795 0.108259 14.7444 0.374976 13.332 0.839381C11.7189 1.36981 10.2418 2.15669 8.88723 3.16037C7.30916 4.32964 5.98819 5.74752 4.93535 7.41894C3.92955 9.0157 3.21072 10.7149 2.79713 12.5595C2.54781 13.6715 2.42282 14.789 2.41063 15.9196C2.38958 17.8707 2.71439 19.7626 3.39071 21.602C4.1738 23.7316 5.35718 25.5999 6.92023 27.2325C8.20327 28.5726 9.68519 29.653 11.3465 30.4746C12.7081 31.1479 14.1374 31.6451 15.6432 31.877C16.1818 31.96 16.7256 32.0085 17.2804 32.058ZM9.50587 23.8304C9.28112 24.0586 9.03014 24.2432 8.67772 24.1687C8.61365 24.1259 8.54989 24.0863 8.48803 24.0479C8.30234 23.9325 8.13373 23.8278 8.02495 23.6793C7.08109 22.3905 6.36616 20.9856 5.98659 19.4254C5.97129 19.3625 5.95585 19.2996 5.9404 19.2367C5.82151 18.7524 5.70205 18.2658 5.64463 17.7733C5.58175 17.234 5.95706 16.8422 6.49848 16.8403C9.14003 16.831 11.7816 16.8316 14.4232 16.8413C14.827 16.8428 15.135 17.0417 15.2816 17.4445C15.4179 17.8189 15.205 18.0673 14.9722 18.3017C14.369 18.9093 13.7647 19.5157 13.1603 20.1221C12.4795 20.8051 11.7988 21.4881 11.1198 22.1728C10.8282 22.4668 10.5405 22.7646 10.2528 23.0623C10.0047 23.3192 9.7565 23.576 9.50587 23.8304ZM22.0568 20.8358C22.2397 21.0193 22.4227 21.2027 22.606 21.3859C22.9715 21.7509 23.3328 22.1138 23.6918 22.4744C24.5406 23.327 25.377 24.167 26.2275 24.9925C26.6764 25.4282 26.7971 26.0647 26.1034 26.5517C24.7109 27.5292 23.1981 28.2193 21.5676 28.6649C21.1411 28.7814 20.6986 28.8626 20.2583 28.8994C19.6755 28.9481 19.3415 28.609 19.3345 28.0136C19.3289 27.5307 19.3301 27.0478 19.3313 26.5649C19.3318 26.3611 19.3323 26.1574 19.3324 25.9536C19.3324 25.4174 19.3324 24.8811 19.3325 24.3448C19.3326 22.9536 19.3327 21.5624 19.332 20.1711C19.3318 19.8304 19.3983 19.5227 19.7356 19.3537C20.1596 19.1413 20.3899 19.1769 20.7391 19.5215C21.1805 19.9574 21.6186 20.3966 22.0568 20.8358ZM29.2459 15.2247C29.0606 15.2239 28.8753 15.2232 28.69 15.2233C28.1005 15.2232 27.5168 15.2233 26.9371 15.2234C25.4551 15.2237 24 15.2239 22.5449 15.2217C21.9187 15.2207 21.6229 14.8969 21.7048 14.29C21.7223 14.1598 21.8005 14.0155 21.8943 13.9212C23.8059 12 25.7209 10.0822 27.6427 8.17132C28.1034 7.71331 28.6553 7.84274 29.0482 8.5384C29.1412 8.70305 29.2353 8.86746 29.3295 9.03201C29.7889 9.83447 30.2503 10.6402 30.589 11.4924C30.8877 12.2436 31.0503 13.0521 31.2118 13.8551C31.2444 14.0174 31.277 14.1794 31.3106 14.3406C31.4085 14.8098 31.023 15.2086 30.5334 15.219C30.1044 15.2281 29.6752 15.2264 29.2459 15.2247ZM17.5751 22.2353C17.5749 22.4696 17.5747 22.7039 17.5748 22.9382L17.5774 28.107C17.5777 28.665 17.312 28.9684 16.7558 28.8961C16.0561 28.8051 15.3518 28.6737 14.6796 28.4637C13.2176 28.007 11.8599 27.3254 10.6517 26.3703C10.26 26.0607 10.2243 25.5388 10.5732 25.1778C10.8669 24.874 11.1667 24.5762 11.4666 24.2784C11.5857 24.1601 11.7048 24.0418 11.8235 23.9231C12.1946 23.5521 12.5656 23.1811 12.9366 22.81C14.0226 21.7239 15.1085 20.6378 16.1968 19.5541C16.6137 19.1389 17.2169 19.1909 17.477 19.6687C17.5474 19.798 17.5686 19.9675 17.5699 20.1189C17.5762 20.8243 17.5756 21.5298 17.5751 22.2353ZM9.74655 8.51891C9.77631 8.54837 9.80608 8.57783 9.83547 8.60763C10.1899 8.96192 10.5428 9.31469 10.8946 9.66626C12.2698 11.0409 13.6268 12.3972 14.9829 13.7544C15.3702 14.1421 15.4547 14.413 15.1833 14.7636C15.0345 14.9558 14.7406 15.1456 14.5103 15.1479C11.8224 15.1744 9.13415 15.1691 6.44604 15.1616C5.94437 15.1602 5.57566 14.7938 5.64572 14.3015C5.74339 13.6153 5.88036 12.9267 6.08537 12.2654C6.50993 10.8958 7.16262 9.63586 7.98732 8.45475C8.49459 7.72826 9.07993 7.79552 9.55697 8.32411C9.61763 8.39133 9.68209 8.45512 9.74655 8.51891ZM20.247 3.2323C22.2993 3.47874 24.1556 4.2359 25.8436 5.41869C25.9104 5.47042 25.9759 5.51855 26.0392 5.56509C26.211 5.6914 26.367 5.806 26.4898 5.94898C26.7367 6.23631 26.6634 6.55632 26.4693 6.85044C26.4188 6.92689 26.3518 6.99319 26.2856 7.0587C26.2745 7.06966 26.2635 7.0806 26.2525 7.09156C25.9561 7.38814 25.6598 7.68477 25.3634 7.98139C23.8886 9.45764 22.4137 10.9339 20.9327 12.404C20.759 12.5764 20.5483 12.7636 20.3232 12.8217C19.8237 12.9507 19.3935 12.5736 19.3825 12.0515C19.3765 11.7668 19.3778 11.4819 19.379 11.197C19.3795 11.0723 19.3801 10.9475 19.38 10.8228C19.3796 10.1645 19.3793 9.50611 19.3789 8.84776C19.3781 7.2414 19.3773 5.63504 19.3762 4.02868C19.3758 3.4899 19.7055 3.16727 20.247 3.2323ZM31.3202 18.0303C30.9834 20.0239 30.2429 21.8522 29.0806 23.5083C29.0241 23.5731 28.9718 23.6389 28.9212 23.7026C28.7878 23.8705 28.6656 24.0243 28.5065 24.1086C28.1714 24.2861 27.8232 24.1914 27.5493 23.916C26.9343 23.2976 26.3206 22.678 25.7069 22.0583C25.3071 21.6547 24.9073 21.251 24.5072 20.8477C24.3128 20.6518 24.1186 20.4556 23.9244 20.2595C23.2734 19.6019 22.6223 18.9443 21.9636 18.2945C21.709 18.0433 21.6377 17.7564 21.7365 17.439C21.8358 17.1201 22.0792 16.9614 22.4239 16.9625C22.9897 16.9644 23.5555 16.9635 24.1212 16.9626C24.4233 16.9622 24.7253 16.9617 25.0273 16.9617C25.5532 16.9616 26.0791 16.9632 26.6049 16.9649C27.875 16.9689 29.1451 16.9729 30.4148 16.9524C31.179 16.94 31.43 17.3801 31.3202 18.0303ZM14.2928 3.68148C14.4977 3.6058 14.7025 3.53013 14.9049 3.44975C15.0725 3.41624 15.236 3.38501 15.3963 3.35441C15.8133 3.27477 16.2082 3.19936 16.5966 3.09887C16.967 3.00306 17.525 3.26535 17.636 3.66139C17.6903 3.85519 17.7197 4.06257 17.7202 4.26389C17.725 6.48409 17.7244 8.70431 17.7238 10.9245C17.7237 11.2345 17.7236 11.5444 17.7235 11.8544C17.7234 12.5232 17.5198 12.8653 16.8874 13.0069C16.6824 13.0528 16.3604 12.8693 16.183 12.6971C15.4322 11.9684 14.696 11.2248 13.9597 10.4812C13.6793 10.1981 13.399 9.9149 13.1178 9.63258C12.7729 9.28625 12.4275 8.94042 12.0821 8.5946C11.6574 8.16944 11.2328 7.74428 10.8091 7.31818C10.708 7.21649 10.616 7.10529 10.5244 6.99462C10.1038 6.48615 10.0874 6.02139 10.6183 5.64351C11.3521 5.12127 12.1368 4.65994 12.9377 4.24599C13.3709 4.02208 13.8319 3.85178 14.2928 3.68148ZM18.4797 17.9463C19.5191 17.9463 20.3618 17.104 20.3618 16.0648C20.3618 15.0257 19.5191 14.1834 18.4797 14.1834C17.4403 14.1834 16.5977 15.0257 16.5977 16.0648C16.5977 17.104 17.4403 17.9463 18.4797 17.9463Z" fill="#4DB34D" style="fill:#4DB34D;fill:color(display-p3 0.3000 0.7000 0.3000);fill-opacity:1;"/>
<path d="M107.157 19.3129C106.388 22.1394 104.803 24.3741 102.444 26.0183C99.4212 28.1245 96.0705 28.8049 92.5067 27.7944C87.7656 26.4501 84.8616 23.2934 83.8576 18.4728C83.16 15.1236 83.9067 12.0347 85.9196 9.29179C86.5639 8.41381 87.397 7.65692 88.2209 6.93214C89.1032 6.15599 90.4058 6.32643 91.1884 7.21487C91.9268 8.05319 91.8828 9.33022 91.0278 10.1204C90.1709 10.9123 89.3646 11.7269 88.8031 12.7691C86.5224 17.002 89.0174 22.5059 93.6823 23.6613C97.5578 24.6212 101.6 22.4132 102.867 18.6245C103.79 15.8668 102.94 12.6284 100.738 10.6619C100.339 10.306 99.9238 9.91581 99.6758 9.45571C99.2294 8.6275 99.486 7.67406 100.205 7.0004C100.827 6.41662 101.768 6.2712 102.563 6.68636C103.549 7.20228 104.285 8.02167 104.954 8.87749C107.378 11.9786 108.076 15.4629 107.157 19.3129Z" fill="#333333" style="fill:#333333;fill:color(display-p3 0.2000 0.2000 0.2000);fill-opacity:1;"/>
<path d="M74.0203 6.76696C74.9636 6.23278 75.8333 6.38665 76.6026 7.02043C78.9861 8.98411 80.5148 11.4689 80.8995 14.554C81.5395 19.6871 79.578 23.6838 75.2723 26.4476C72.4459 28.2619 69.2843 28.7231 66.0209 27.8083C61.4807 26.5355 58.5961 23.551 57.4549 19.0022C56.5734 15.4887 57.275 12.1958 59.4213 9.27328C60.0577 8.40672 60.8832 7.66235 61.6959 6.94554C62.5848 6.16152 63.8693 6.31518 64.6647 7.19947C65.4251 8.04483 65.3814 9.31972 64.5043 10.1348C63.6498 10.9289 62.8063 11.7239 62.2939 12.7921C60.9645 15.5635 61.1588 18.2414 62.9226 20.7507C64.3411 22.7688 66.3749 23.8042 68.8133 23.8875C72.102 24 75.0876 22.0619 76.2559 18.8831C77.3652 15.8648 76.5251 12.7193 74.1148 10.5653C73.7771 10.2635 73.4096 9.94681 73.2 9.55926C72.6668 8.57336 73.0123 7.47844 74.0203 6.76696Z" fill="#333333" style="fill:#333333;fill:color(display-p3 0.2000 0.2000 0.2000);fill-opacity:1;"/>
<path d="M146.38 5.14574C148.62 5.52753 150.614 6.34288 152.257 7.90196C153.652 9.22503 154.556 10.8381 155.021 12.6881C155.729 15.5042 155.643 18.2913 154.566 21.011C153.952 22.5598 153.04 23.9172 151.774 25.0131C150.89 25.7782 149.58 25.697 148.78 24.865C148.018 24.0728 148.022 22.8118 148.842 21.963C150.005 20.7605 150.855 19.3968 151.072 17.7187C151.355 15.5279 151.191 13.4031 149.843 11.5354C148.904 10.2349 147.562 9.49193 146.015 9.32203C144.058 9.10707 142.078 9.09974 140.047 8.99981C140.047 9.28769 140.047 9.45297 140.047 9.61824C140.047 14.8344 140.048 20.0505 140.046 25.2667C140.046 26.3648 139.569 27.1289 138.681 27.4789C137.304 28.0218 135.818 27.0518 135.74 25.5549C135.726 25.2833 135.737 25.0105 135.737 24.7382C135.737 18.9488 135.741 13.1595 135.733 7.37015C135.732 6.46162 135.996 5.68851 136.826 5.24945C137.189 5.05777 137.64 4.95105 138.052 4.94861C140.375 4.93486 142.699 4.95673 145.023 4.98628C145.463 4.99188 145.903 5.08664 146.38 5.14574Z" fill="#333333" style="fill:#333333;fill:color(display-p3 0.2000 0.2000 0.2000);fill-opacity:1;"/>
<path d="M129.795 9.75135C131.202 12.0466 131.617 14.5387 131.459 17.1468C131.297 19.8204 130.397 22.221 128.598 24.2318C128.143 24.7405 127.673 25.2872 126.936 25.4633C126.014 25.6835 125.052 25.3285 124.542 24.5389C124.082 23.8281 124.172 22.8118 124.756 22.0962C125.208 21.5428 125.722 21.0279 126.096 20.4261C127.382 18.3569 127.459 16.1015 126.921 13.807C126.235 10.882 124.099 9.44475 121.334 9.20793C119.613 9.06052 117.869 9.18054 116.073 9.18054C116.073 9.27779 116.073 9.44321 116.073 9.60863C116.073 14.8536 116.075 20.0986 116.072 25.3436C116.071 26.7697 115.076 27.7175 113.708 27.6124C112.77 27.5402 111.951 26.7753 111.796 25.8137C111.762 25.6028 111.754 25.386 111.754 25.1719C111.752 19.2533 111.752 13.3348 111.753 7.41628C111.753 5.78574 112.608 4.9302 114.247 4.93638C116.471 4.94475 118.698 4.88815 120.916 4.99737C124.169 5.1575 127.035 6.24941 129.162 8.85658C129.386 9.13101 129.573 9.43497 129.795 9.75135Z" fill="#333333" style="fill:#333333;fill:color(display-p3 0.2000 0.2000 0.2000);fill-opacity:1;"/>
<path d="M166.01 5.84189C167.052 4.51264 168.961 4.67258 169.678 6.1594C171.219 9.3544 172.727 12.5647 174.248 15.7693C174.774 16.8777 175.3 17.9863 175.819 19.098C176.563 20.6929 175.209 22.1461 173.749 22.1253C170.305 22.0762 166.86 22.1141 163.416 22.102C163.101 22.1009 162.934 22.186 162.799 22.4792C162.192 23.7878 161.575 25.0924 160.93 26.3823C160.339 27.5638 159.065 27.9539 157.92 27.3433C156.936 26.8186 156.573 25.5376 157.118 24.3897C158.625 21.2125 160.15 18.0437 161.663 14.8688C162.978 12.1071 164.285 9.34109 165.599 6.57871C165.715 6.33419 165.858 6.1022 166.01 5.84189ZM167.875 12.3403C167.68 11.9704 167.634 12.3221 167.589 12.4154C166.919 13.8178 166.26 15.2255 165.595 16.6307C165.323 17.206 165.045 17.7784 164.75 18.3927C166.792 18.3927 168.763 18.3927 170.798 18.3927C169.82 16.3682 168.861 14.3846 167.875 12.3403Z" fill="#333333" style="fill:#333333;fill:color(display-p3 0.2000 0.2000 0.2000);fill-opacity:1;"/>
<path d="M42.0494 6.77386C42.2449 5.68836 43.0086 4.95841 44.1448 4.95047C47.8328 4.92471 51.5215 4.93481 55.2094 4.97679C56.3157 4.98938 57.1418 5.93469 57.1621 7.03474C57.183 8.16861 56.4062 9.08204 55.2859 9.22768C55.0451 9.25898 54.7997 9.2638 54.5564 9.26403C51.8865 9.26654 49.2167 9.26564 46.5468 9.26635C46.4899 9.26637 46.433 9.27444 46.3113 9.28366C46.3113 9.44822 46.3113 9.61279 46.3113 9.77737C46.3113 14.9952 46.2884 20.2131 46.3251 25.4306C46.3362 27.0189 44.5733 28.2187 43.0664 27.3184C42.3088 26.8658 42.0012 26.1625 42.0029 25.297C42.0077 22.9318 42.0046 20.5666 42.0046 18.2013C42.0046 14.5747 42.0041 10.948 42.0061 7.3214C42.0062 7.1509 42.0282 6.98042 42.0494 6.77386Z" fill="#333333" style="fill:#333333;fill:color(display-p3 0.2000 0.2000 0.2000);fill-opacity:1;"/>
<path d="M189.397 23.9872C189.387 24.5884 189.399 25.1482 189.361 25.7045C189.289 26.7487 188.367 27.6017 187.305 27.6392C186.252 27.6763 185.262 26.8861 185.124 25.8474C185.056 25.3394 185.061 24.8194 185.064 24.305C185.074 22.6295 185.063 20.9526 185.136 19.2797C185.164 18.6514 184.854 18.2214 184.563 17.7642C182.571 14.6365 180.567 11.5164 178.563 8.39654C178.033 7.57284 178.034 6.54293 178.581 5.81989C179.171 5.04133 180.105 4.7148 181.058 5.10306C181.488 5.27819 181.907 5.65705 182.164 6.05186C183.82 8.60103 185.43 11.1803 187.057 13.7487C187.093 13.8059 187.146 13.8524 187.23 13.9478C187.747 13.1379 188.24 12.3585 188.741 11.5837C189.386 10.5847 190.36 10.2076 191.382 10.5531C192.577 10.9572 193.196 12.3313 192.597 13.4357C192.039 14.4637 191.373 15.4333 190.753 16.4274C190.488 16.852 190.257 17.305 189.942 17.6892C189.474 18.2604 189.367 18.8873 189.386 19.6019C189.423 21.0484 189.397 22.4967 189.397 23.9872Z" fill="#333333" style="fill:#333333;fill:color(display-p3 0.2000 0.2000 0.2000);fill-opacity:1;"/>
<path d="M94.9737 4.44982C96.2269 4.15911 97.38 4.79967 97.6864 5.92857C97.9879 7.03906 97.3454 8.22913 96.2603 8.57011C95.1296 8.92544 93.9421 8.32953 93.5545 7.21219C93.1559 6.06339 93.7252 4.93147 94.9737 4.44982Z" fill="#4DB34D" style="fill:#4DB34D;fill:color(display-p3 0.3000 0.7000 0.3000);fill-opacity:1;"/>
<path d="M70.2324 8.33927C69.406 8.808 68.609 8.80209 67.856 8.27748C67.0822 7.73837 66.8048 6.95453 66.9879 6.05195C67.1581 5.21365 67.704 4.66301 68.5357 4.42955C69.5112 4.15576 70.5837 4.65001 71.0335 5.5631C71.516 6.54255 71.222 7.59141 70.2324 8.33927Z" fill="#4DB34D" style="fill:#4DB34D;fill:color(display-p3 0.3000 0.7000 0.3000);fill-opacity:1;"/>
<path d="M143.112 23.7313C144.126 23.0846 145.271 23.2387 145.998 24.0998C146.678 24.9054 146.669 26.1428 145.977 26.8894C145.194 27.7346 144.019 27.8849 143.104 27.2384C141.975 26.4408 141.839 24.6564 143.112 23.7313Z" fill="#4DB34D" style="fill:#4DB34D;fill:color(display-p3 0.3000 0.7000 0.3000);fill-opacity:1;"/>
<path d="M174.625 26.5526C174.191 25.6716 174.242 24.8499 174.847 24.113C175.415 23.421 176.175 23.164 177.045 23.3965C177.928 23.6327 178.452 24.241 178.634 25.1358C178.817 26.0378 178.296 27.0213 177.422 27.437C176.569 27.8426 175.489 27.6119 174.873 26.8897C174.789 26.7918 174.717 26.6841 174.625 26.5526Z" fill="#4DB34D" style="fill:#4DB34D;fill:color(display-p3 0.3000 0.7000 0.3000);fill-opacity:1;"/>
<path d="M52.296 18.1897C51.6596 18.8883 50.9033 19.1512 50.0223 18.889C49.221 18.6505 48.7071 18.1005 48.5224 17.2715C48.3126 16.3295 48.7617 15.3649 49.6141 14.9156C50.4412 14.4796 51.4992 14.641 52.159 15.3037C52.8323 15.98 52.979 17.051 52.5093 17.8824C52.4532 17.9817 52.3813 18.0722 52.296 18.1897Z" fill="#4DB34D" style="fill:#4DB34D;fill:color(display-p3 0.3000 0.7000 0.3000);fill-opacity:1;"/>
<path d="M121.628 27.2331C120.845 27.734 120.052 27.7755 119.286 27.3316C118.6 26.9338 118.23 26.2909 118.227 25.485C118.223 24.4744 118.94 23.6006 119.916 23.3825C120.9 23.1628 121.89 23.6485 122.338 24.5704C122.778 25.4764 122.506 26.5276 121.628 27.2331Z" fill="#4DB34D" style="fill:#4DB34D;fill:color(display-p3 0.3000 0.7000 0.3000);fill-opacity:1;"/>
<path d="M192.836 8.81736C191.516 7.62086 191.829 5.61224 193.395 5.06103C194.359 4.72152 195.432 5.08971 195.945 5.93633C196.478 6.81457 196.339 7.94832 195.611 8.65505C194.857 9.3872 193.797 9.45724 192.836 8.81736Z" fill="#4DB34D" style="fill:#4DB34D;fill:color(display-p3 0.3000 0.7000 0.3000);fill-opacity:1;"/>
</svg>
