<svg width="51" height="50" viewBox="0 0 51 50" fill="none" xmlns="http://www.w3.org/2000/svg">
<path d="M0.5 25C0.5 11.1929 11.6929 0 25.5 0C39.3071 0 50.5 11.1929 50.5 25C50.5 38.8071 39.3071 50 25.5 50C11.6929 50 0.5 38.8071 0.5 25Z" fill="#E6E6E6" style="fill:#E6E6E6;fill:color(display-p3 0.9000 0.9000 0.9000);fill-opacity:1;"/>
<path d="M37.5 23H13.5C13.2348 23 12.9804 23.1054 12.7929 23.2929C12.6054 23.4804 12.5 23.7348 12.5 24C12.5044 26.3782 13.1589 28.7099 14.3926 30.7429C15.6264 32.776 17.3925 34.4331 19.5 35.535V36C19.5 36.5304 19.7107 37.0392 20.0858 37.4142C20.4609 37.7893 20.9696 38 21.5 38H29.5C30.0304 38 30.5391 37.7893 30.9142 37.4142C31.2893 37.0392 31.5 36.5304 31.5 36V35.535C33.6075 34.4331 35.3736 32.776 36.6074 30.7429C37.8411 28.7099 38.4956 26.3782 38.5 24C38.5 23.7348 38.3946 23.4804 38.2071 23.2929C38.0196 23.1054 37.7652 23 37.5 23ZM30.0825 34C29.9086 34.0799 29.7614 34.208 29.6581 34.369C29.5549 34.5301 29.5 34.7174 29.5 34.9088V36H21.5V34.9113C21.5005 34.7195 21.4458 34.5317 21.3426 34.3701C21.2393 34.2085 21.0917 34.0801 20.9175 34C19.1589 33.1908 17.6441 31.9332 16.5251 30.3535C15.4062 28.7737 14.7224 26.9275 14.5425 25H36.4538C36.2742 26.9271 35.591 28.7731 34.4727 30.3528C33.3544 31.9324 31.8404 33.1903 30.0825 34ZM19.7212 15.875C20.39 15.0425 20.555 14.48 20.4862 14.2325C20.4338 14.0463 20.185 13.95 20.1825 13.95C19.9561 13.8756 19.7638 13.7229 19.6401 13.5192C19.5164 13.3156 19.4694 13.0745 19.5077 12.8393C19.546 12.6041 19.667 12.3904 19.8489 12.2365C20.0308 12.0826 20.2617 11.9988 20.5 12C20.6009 12.0001 20.7011 12.0153 20.7975 12.045C20.9225 12.0838 22.0363 12.4613 22.3962 13.64C22.7037 14.6488 22.3275 15.8213 21.2788 17.1263C20.61 17.9588 20.445 18.5213 20.5138 18.7688C20.5662 18.955 20.81 19.0488 20.8125 19.05C21.0384 19.1243 21.2305 19.2766 21.3543 19.4797C21.478 19.6829 21.5253 19.9234 21.4877 20.1583C21.45 20.3931 21.3299 20.6068 21.1489 20.7611C20.9679 20.9154 20.7378 21.0001 20.5 21C20.3991 20.9999 20.2989 20.9847 20.2025 20.955C20.0775 20.9163 18.9638 20.5388 18.6038 19.36C18.2963 18.3513 18.6725 17.1788 19.7212 15.875ZM24.7212 15.875C25.39 15.0425 25.555 14.48 25.4862 14.2325C25.4338 14.0463 25.185 13.95 25.1825 13.95C24.9561 13.8756 24.7638 13.7229 24.6401 13.5192C24.5164 13.3156 24.4694 13.0745 24.5077 12.8393C24.546 12.6041 24.667 12.3904 24.8489 12.2365C25.0308 12.0826 25.2617 11.9988 25.5 12C25.6009 12.0001 25.7011 12.0153 25.7975 12.045C25.9225 12.0838 27.0363 12.4613 27.3962 13.64C27.7037 14.6488 27.3275 15.8213 26.2787 17.1263C25.61 17.9588 25.445 18.5213 25.5138 18.7688C25.5662 18.955 25.81 19.0488 25.8125 19.05C26.0384 19.1243 26.2305 19.2766 26.3543 19.4797C26.478 19.6829 26.5253 19.9234 26.4877 20.1583C26.45 20.3931 26.3299 20.6068 26.1489 20.7611C25.9679 20.9154 25.7378 21.0001 25.5 21C25.3991 20.9999 25.2989 20.9847 25.2025 20.955C25.0775 20.9163 23.9637 20.5388 23.6038 19.36C23.2963 18.3513 23.6725 17.1788 24.7212 15.875ZM29.7213 15.875C30.39 15.0425 30.555 14.48 30.4862 14.2325C30.4338 14.0463 30.185 13.95 30.1825 13.95C29.9561 13.8756 29.7638 13.7229 29.6401 13.5192C29.5164 13.3156 29.4694 13.0745 29.5077 12.8393C29.546 12.6041 29.667 12.3904 29.8489 12.2365C30.0308 12.0826 30.2617 11.9988 30.5 12C30.6009 12.0001 30.7011 12.0153 30.7975 12.045C30.9225 12.0838 32.0362 12.4613 32.3962 13.64C32.7038 14.6488 32.3275 15.8213 31.2787 17.1263C30.61 17.9588 30.445 18.5213 30.5138 18.7688C30.5662 18.955 30.81 19.0488 30.8125 19.05C31.0384 19.1243 31.2305 19.2766 31.3543 19.4797C31.478 19.6829 31.5253 19.9234 31.4877 20.1583C31.45 20.3931 31.3299 20.6068 31.1489 20.7611C30.9679 20.9154 30.7378 21.0001 30.5 21C30.3991 20.9999 30.2989 20.9847 30.2025 20.955C30.0775 20.9163 28.9638 20.5388 28.6038 19.36C28.2963 18.3513 28.6725 17.1788 29.7213 15.875Z" fill="#333333" style="fill:#333333;fill:color(display-p3 0.2000 0.2000 0.2000);fill-opacity:1;"/>
</svg>
